# xmcd
#
# Track frame offsets:
#   150
#   10981
#   22076
#   34543
#   48166
#   61277
#   71718
#   82306
#   89185
#   102945
#   107156
#   120601
#   147198
#   158276
#   169987
#   181444
#   203814
#
# Disc length: 2877 seconds
#
# Revision: 0
# Processed by: cddbd v1.5.2PL0 Copyright (c) Steve Scherf et al.
# Submitted via: GXTranscoder 2.0.1939
#
DISCID=ec0b3b11
DTITLE=Various Artist - Witz und Volksmusik CD2
DYEAR=1900
DGENRE=Classical
TTITLE0=Einen Fünfziger und a Bier
TTITLE1=Witz21
TTITLE2=Da Lump
TTITLE3=Witz22
TTITLE4=I, Iuhstall is da Teufel los
TTITLE5=Witz23
TTITLE6=Hallo Mädl sagt da Hegl
TTITLE7=Witz24
TTITLE8=Don Camillo und Peppone
TTITLE9=Witz25
TTITLE10=Immer wieder dieser Meier
TTITLE11=Witz26
TTITLE12=Schneidig, z'wida, urig
TTITLE13=Witz27
TTITLE14=Das Lied vom Sepp
TTITLE15=Witz28
TTITLE16=Des geht auf koa Kuhhaut
EXTD=
EXTT0=
EXTT1=
EXTT2=
EXTT3=
EXTT4=
EXTT5=
EXTT6=
EXTT7=
EXTT8=
EXTT9=
EXTT10=
EXTT11=
EXTT12=
EXTT13=
EXTT14=
EXTT15=
EXTT16=
PLAYORDER=
